# Blender 4.5.5 LTS
# www.blender.org
mtllib SM_SchoolyardTree_Realistic.mtl
o SM_SchoolyardTree
v 0.751460 2.059732 0.458777
v 0.120000 1.639636 0.000000
v 0.000000 0.000000 -0.160000
v 0.120000 2.100000 -0.090000
v 0.102846 0.000000 -0.122567
v 0.177851 2.100000 -0.068944
v 0.157569 0.000000 -0.027784
v 0.208633 2.100000 -0.015628
v 0.138564 0.000000 0.080000
v 0.197942 2.100000 0.045000
v 0.054723 0.000000 0.150351
v 0.150782 2.100000 0.084572
v -0.054723 0.000000 0.150351
v 0.089218 2.100000 0.084572
v -0.138564 0.000000 0.080000
v 0.042058 2.100000 0.045000
v -0.157569 0.000000 -0.027784
v 0.031367 2.100000 -0.015628
v -0.102846 0.000000 -0.122567
v 0.062149 2.100000 -0.068944
v -0.114880 2.069943 0.722900
v -0.624502 2.077747 0.000000
v -0.101386 2.091779 -0.681367
v 0.796272 2.032036 -0.491335
v 0.368431 2.851983 0.764605
v -0.547028 2.862252 0.484619
v -0.516802 2.843570 -0.462658
v 0.346770 2.816933 -0.697938
v 0.853129 2.816567 0.000000
v 0.120000 3.361022 0.000000
v -0.724989 2.450000 -0.274549
v -0.421836 2.450000 -0.745773
v -0.486239 1.986869 -0.440456
v -0.020903 1.712198 -0.433663
v -0.357455 2.450000 0.657160
v -0.419339 2.037977 0.391851
v -0.657227 2.450000 0.252532
v -0.312199 1.750686 0.000000
v 0.646835 2.450000 0.725126
v 0.501085 1.687823 -0.276871
v 0.120000 2.450000 0.931190
v 0.802077 2.028448 0.000000
v 1.011333 2.450000 -0.289607
v 0.344180 2.001641 0.689941
v 0.886781 2.450000 0.249138
v 0.520035 1.649923 0.290639
v 0.364367 1.961266 -0.752070
v -0.021442 1.709376 0.435322
v 0.671925 2.450000 -0.759659
v 0.120000 2.450000 -0.788593
v 0.731097 2.916842 0.443986
v -0.129247 2.948495 0.767090
v -0.601052 2.895640 0.000000
v -0.117761 2.925523 -0.731741
v 0.713592 2.903469 -0.431268
v 0.251146 3.136710 0.403632
v 0.573857 3.184358 0.000000
v -0.272305 3.234619 0.285023
v -0.258032 3.206072 -0.274653
v 0.262468 3.195994 -0.438478
v -0.450000 1.577534 -0.300000
v 0.008357 1.866716 0.033012
v -0.634895 1.850824 0.269058
v -1.029553 1.860222 -0.300000
v -0.603972 1.900859 -0.773886
v -0.004649 1.874755 -0.623563
v -0.266828 2.446388 0.263755
v -0.866777 2.407586 0.002803
v -0.867238 2.407871 -0.603138
v -0.296870 2.397778 -0.771293
v 0.147940 2.448972 -0.300000
v -0.450000 2.764580 -0.300000
v -0.555853 1.595731 0.025787
v -0.185448 1.620890 -0.107794
v -0.295272 1.840545 0.176193
v 0.049215 1.841465 -0.300000
v -0.190393 1.630781 -0.488613
v -0.797880 1.587116 -0.300000
v -0.860373 1.836499 -0.001848
v -0.547384 1.640074 -0.599723
v -0.901953 1.804735 -0.628362
v -0.282681 1.815362 -0.814945
v 0.071389 2.150000 -0.130593
v 0.125093 2.150000 -0.486856
v -0.450000 2.150000 0.304424
v -0.073125 2.150000 0.218723
v -1.073470 2.150000 -0.097425
v -0.827239 2.150000 0.219224
v -0.826868 2.150000 -0.818714
v -1.014276 2.150000 -0.483342
v -0.064160 2.150000 -0.831063
v -0.450000 2.150000 -0.924259
v -0.031209 2.469932 0.004268
v -0.615000 2.480000 0.207809
v -0.944457 2.455595 -0.300000
v -0.618401 2.486801 -0.818274
v 0.004866 2.497491 -0.630478
v -0.359745 2.622595 -0.022220
v -0.101078 2.714570 -0.300000
v -0.710765 2.671535 -0.110545
v -0.685416 2.620837 -0.471038
v -0.358324 2.630037 -0.582155
v 0.550000 1.656385 0.250000
v 0.923824 1.968961 0.521596
v 0.391058 1.942819 0.739181
v 0.102040 1.976019 0.250000
v 0.394606 1.948559 -0.228263
v 0.927416 1.966741 -0.024205
v 0.711781 2.461776 0.747919
v 0.154710 2.444306 0.537192
v 0.157005 2.442888 -0.035524
v 0.714816 2.466686 -0.257259
v 1.098349 2.474176 0.250000
v 0.550000 2.792872 0.250000
v 0.462905 1.743950 0.518056
v 0.787492 1.725012 0.422546
v 0.710712 1.878575 0.744612
v 1.062247 1.883410 0.250000
v 0.800387 1.699221 0.068085
v 0.252247 1.718224 0.250000
v 0.142305 1.888545 0.546206
v 0.460667 1.732234 -0.024942
v 0.165239 1.906065 -0.029544
v 0.699445 1.901110 -0.209936
v 1.076489 2.200000 0.421064
v 1.074460 2.200000 0.079595
v 0.550000 2.200000 0.837374
v 0.894475 2.200000 0.724129
v 0.071036 2.200000 0.405623
v 0.223948 2.200000 0.698771
v 0.197149 2.200000 -0.235657
v -0.011218 2.200000 0.067652
v 0.867099 2.200000 -0.186448
v 0.550000 2.200000 -0.272274
v 0.912638 2.477034 0.513471
v 0.399334 2.501333 0.713694
v 0.046508 2.511179 0.250000
v 0.412970 2.474059 -0.171726
v 0.967004 2.518566 -0.052970
v 0.634740 2.643716 0.510806
v 0.863069 2.706559 0.250000
v 0.314053 2.671898 0.421423
v 0.333564 2.632877 0.092752
v 0.634099 2.640361 -0.008834
v 0.050000 1.495983 -0.450000
v 0.416013 1.823789 -0.184079
v -0.079681 1.840165 -0.050876
v -0.374610 1.837694 -0.450000
v -0.078319 1.842369 -0.844931
v 0.449649 1.803000 -0.740358
v 0.187879 2.273100 -0.025646
v -0.325500 2.282074 -0.177187
v -0.343414 2.293146 -0.735829
v 0.178253 2.257524 -0.844728
v 0.502133 2.276068 -0.450000
v 0.050000 2.548343 -0.450000
v -0.026694 1.648412 -0.213956
v 0.284119 1.581757 -0.279905
v 0.177164 1.795671 -0.058636
v 0.446717 1.804812 -0.450000
v 0.268828 1.612340 -0.608986
v -0.208609 1.631560 -0.450000
v -0.297310 1.784675 -0.197665
v -0.024337 1.660756 -0.678789
v -0.306858 1.777381 -0.709272
v 0.196126 1.757747 -0.899722
v 0.506969 2.050000 -0.301524
v 0.495527 2.050000 -0.594758
v 0.050000 2.050000 0.058714
v 0.348824 2.050000 -0.038704
v -0.465621 2.050000 -0.282467
v -0.232088 2.050000 -0.061740
v -0.275708 2.050000 -0.898299
v -0.410642 2.050000 -0.599669
v 0.373161 2.050000 -0.894792
v 0.050000 2.050000 -0.987282
v 0.418940 2.331848 -0.181950
v -0.073235 2.296470 -0.070729
v -0.374669 2.312463 -0.450000
v -0.079638 2.309276 -0.848977
v 0.399813 2.317236 -0.704153
v 0.135550 2.497958 -0.186700
v 0.291448 2.440673 -0.450000
v -0.152423 2.454850 -0.302933
v -0.154790 2.459584 -0.598787
v 0.139364 2.517930 -0.725038
v 0.250000 2.429482 -0.050000
v 0.654272 2.700143 0.243718
v 0.107115 2.718799 0.389763
v -0.278604 2.685697 -0.050000
v 0.097102 2.702598 -0.520579
v 0.629573 2.715408 -0.325772
v 0.413096 3.213904 0.451967
v -0.195646 3.225428 0.273777
v -0.141515 3.191972 -0.334449
v 0.412892 3.213573 -0.551339
v 0.759148 3.204575 -0.050000
v 0.250000 3.505787 -0.050000
v 0.151604 2.434778 0.252836
v 0.479210 2.491575 0.116529
v 0.396475 2.657051 0.400794
v 0.739351 2.647561 -0.050000
v 0.483344 2.483308 -0.219532
v -0.061316 2.446279 -0.050000
v -0.113716 2.672143 0.214254
v 0.160433 2.481009 -0.325662
v -0.127630 2.661513 -0.324363
v 0.383523 2.682953 -0.460935
v 0.752277 2.950000 0.113197
v 0.812913 2.950000 -0.232899
v 0.250000 2.950000 0.513700
v 0.590254 2.950000 0.418319
v -0.233427 2.950000 0.107072
v -0.093022 2.950000 0.422128
v -0.082192 2.950000 -0.507223
v -0.251744 2.950000 -0.213024
v 0.588188 2.950000 -0.515476
v 0.250000 2.950000 -0.558063
v 0.595909 3.214255 0.201317
v 0.106297 3.237406 0.392264
v -0.220693 3.240908 -0.050000
v 0.098321 3.253358 -0.516811
v 0.634649 3.243849 -0.329463
v 0.339708 3.419734 0.226099
v 0.527326 3.398724 -0.050000
v 0.018576 3.412853 0.118138
v 0.029645 3.390714 -0.210095
v 0.348677 3.466693 -0.353701
vn 0.7877 -0.3942 0.4734
vn -0.0982 -0.9949 -0.0216
vn -0.0096 -0.6248 -0.7807
vn 0.0095 0.6498 -0.7601
vn 0.4889 -0.6387 -0.5941
vn 0.5015 0.6362 -0.5863
vn 0.7513 -0.6462 -0.1342
vn 0.7659 0.6290 -0.1334
vn 0.6604 -0.6436 0.3868
vn 0.6739 0.6315 0.3835
vn 0.2565 -0.6322 0.7311
vn 0.2705 0.6425 0.7169
vn -0.2775 -0.6175 0.7360
vn -0.2494 0.6570 0.7114
vn -0.6911 -0.6063 0.3935
vn -0.6419 0.6682 0.3761
vn -0.7853 -0.6038 -0.1368
vn -0.7301 0.6708 -0.1304
vn -0.5144 -0.6110 -0.6017
vn -0.4754 0.6635 -0.5778
vn -0.3741 -0.4677 0.8008
vn -0.8727 -0.4757 0.1095
vn -0.2536 -0.4124 -0.8750
vn 0.7501 -0.5023 -0.4302
vn 0.3193 0.5180 0.7936
vn -0.8012 0.3347 0.4960
vn -0.7462 0.4700 -0.4715
vn 0.2419 0.4237 -0.8729
vn 0.8934 0.4474 0.0419
vn 0.0625 0.9974 0.0370
vn -0.9741 -0.0073 -0.2260
vn -0.5228 -0.0522 -0.8508
vn -0.6615 -0.5771 -0.4790
vn -0.2164 -0.8591 -0.4638
vn -0.6516 -0.1244 0.7483
vn -0.7162 -0.4971 0.4898
vn -0.9366 -0.0843 0.3400
vn -0.5312 -0.8457 0.0504
vn 0.6438 -0.0305 0.7646
vn 0.4033 -0.8790 -0.2545
vn -0.0391 -0.0717 0.9967
vn 0.8733 -0.4831 0.0632
vn 0.9826 0.0287 -0.1836
vn 0.2379 -0.5327 0.8121
vn 0.9575 -0.0153 0.2881
vn 0.4283 -0.8545 0.2941
vn 0.1361 -0.5058 -0.8518
vn -0.2553 -0.8412 0.4768
vn 0.4992 0.0905 -0.8618
vn -0.0227 0.0006 -0.9997
vn 0.7157 0.5390 0.4440
vn -0.2496 0.5308 0.8099
vn -0.8776 0.4792 -0.0142
vn -0.1907 0.4993 -0.8452
vn 0.6608 0.5818 -0.4742
vn 0.2148 0.8527 0.4762
vn 0.5587 0.8290 0.0243
vn -0.4048 0.8689 0.2847
vn -0.4515 0.8327 -0.3205
vn 0.2084 0.8204 -0.5324
vn 0.0539 -0.9966 -0.0616
vn 0.7677 -0.4221 0.4821
vn -0.2489 -0.4388 0.8634
vn -0.9124 -0.4085 0.0234
vn -0.2438 -0.4717 -0.8474
vn 0.7584 -0.4763 -0.4449
vn 0.2608 0.5127 0.8180
vn -0.7213 0.5070 0.4720
vn -0.7453 0.5143 -0.4243
vn 0.2274 0.5167 -0.8254
vn 0.9412 0.3266 0.0867
vn -0.0718 0.9970 -0.0279
vn -0.1199 -0.8733 0.4722
vn 0.4283 -0.8609 0.2746
vn 0.2915 -0.5085 0.8102
vn 0.8805 -0.4740 0.0040
vn 0.4085 -0.8713 -0.2719
vn -0.4671 -0.8842 0.0074
vn -0.6976 -0.5165 0.4965
vn -0.1162 -0.8460 -0.5203
vn -0.6433 -0.5064 -0.5743
vn 0.1866 -0.5665 -0.8027
vn 0.9571 -0.0409 0.2868
vn 0.9717 -0.0950 -0.2163
vn 0.0186 -0.0247 0.9995
vn 0.6296 -0.0368 0.7760
vn -0.9522 0.0655 0.2985
vn -0.5994 0.0487 0.7990
vn -0.5959 -0.0061 -0.8030
vn -0.9403 0.1093 -0.3223
vn 0.5698 0.0315 -0.8212
vn -0.0089 0.0004 -1.0000
vn 0.6904 0.5080 0.5151
vn -0.2896 0.5725 0.7671
vn -0.8164 0.5754 -0.0500
vn -0.2219 0.6132 -0.7581
vn 0.6043 0.5394 -0.5864
vn 0.1366 0.8633 0.4859
vn 0.4285 0.9026 0.0413
vn -0.4402 0.8541 0.2772
vn -0.4401 0.8416 -0.3132
vn 0.0781 0.8345 -0.5455
vn -0.0318 -0.9988 0.0378
vn 0.7467 -0.4357 0.5026
vn -0.3154 -0.4654 0.8270
vn -0.9155 -0.4013 0.0274
vn -0.2315 -0.4553 -0.8597
vn 0.7231 -0.3723 -0.5818
vn 0.3109 0.5377 0.7837
vn -0.7590 0.3800 0.5288
vn -0.6217 0.5629 -0.5446
vn 0.1747 0.4378 -0.8819
vn 0.9163 0.3912 0.0852
vn -0.0658 0.9972 -0.0348
vn -0.1519 -0.8833 0.4436
vn 0.3975 -0.8551 0.3329
vn 0.2973 -0.5754 0.7619
vn 0.8671 -0.4978 0.0168
vn 0.4030 -0.8527 -0.3325
vn -0.5388 -0.8423 -0.0141
vn -0.7480 -0.4956 0.4414
vn -0.1839 -0.8540 -0.4867
vn -0.6968 -0.5731 -0.4313
vn 0.2873 -0.4733 -0.8327
vn 0.9335 -0.0226 0.3579
vn 0.9285 -0.0799 -0.3625
vn -0.0483 0.0214 0.9986
vn 0.6669 0.0086 0.7451
vn -0.9486 -0.0427 0.3134
vn -0.6538 0.0368 0.7558
vn -0.5326 0.0467 -0.8451
vn -0.9744 -0.0561 -0.2178
vn 0.5817 -0.0940 -0.8080
vn 0.0159 0.0105 -0.9998
vn 0.6529 0.5416 0.5295
vn -0.2903 0.5688 0.7695
vn -0.8386 0.5445 0.0155
vn -0.2689 0.5881 -0.7628
vn 0.6598 0.5113 -0.5506
vn 0.1763 0.8345 0.5220
vn 0.4697 0.8811 0.0557
vn -0.4116 0.8596 0.3028
vn -0.3938 0.8315 -0.3919
vn 0.0301 0.8501 -0.5258
vn -0.1064 -0.9934 -0.0432
vn 0.7686 -0.3955 0.5028
vn -0.2683 -0.4750 0.8381
vn -0.8812 -0.4720 -0.0280
vn -0.2862 -0.5569 -0.7797
vn 0.8151 -0.4333 -0.3845
vn 0.1948 0.4290 0.8821
vn -0.6425 0.5061 0.5755
vn -0.7242 0.5049 -0.4697
vn 0.2453 0.4705 -0.8476
vn 0.9010 0.4314 -0.0452
vn -0.0197 0.9993 0.0333
vn -0.2216 -0.7824 0.5821
vn 0.4598 -0.8116 0.3604
vn 0.1858 -0.5223 0.8323
vn 0.8987 -0.4378 0.0241
vn 0.4191 -0.8536 -0.3094
vn -0.5570 -0.8305 -0.0022
vn -0.6374 -0.5672 0.5215
vn -0.2256 -0.8139 -0.5354
vn -0.6568 -0.5894 -0.4704
vn 0.1262 -0.5991 -0.7907
vn 0.9696 -0.0633 0.2364
vn 0.9801 0.0006 -0.1987
vn -0.0545 -0.0142 0.9984
vn 0.5876 -0.0386 0.8082
vn -0.9572 -0.0364 0.2871
vn -0.5205 -0.0139 0.8537
vn -0.5828 -0.0513 -0.8110
vn -0.9670 -0.0468 -0.2503
vn 0.6151 0.1227 -0.7788
vn -0.0272 0.0520 -0.9983
vn 0.7100 0.5283 0.4655
vn -0.2827 0.5161 0.8086
vn -0.8182 0.5749 -0.0006
vn -0.1931 0.5693 -0.7991
vn 0.7063 0.5326 -0.4664
vn 0.1123 0.8686 0.4827
vn 0.5317 0.8469 -0.0046
vn -0.4305 0.8517 0.2989
vn -0.4357 0.8659 -0.2456
vn 0.1708 0.8468 -0.5037
vn 0.0836 -0.9951 -0.0531
vn 0.7305 -0.4539 0.5102
vn -0.2984 -0.4358 0.8492
vn -0.9353 -0.3521 0.0362
vn -0.1905 -0.4342 -0.8805
vn 0.6371 -0.5107 -0.5774
vn 0.3060 0.4976 0.8116
vn -0.7490 0.4456 0.4903
vn -0.7472 0.4659 -0.4739
vn 0.2637 0.3572 -0.8960
vn 0.8597 0.4986 0.1114
vn -0.0318 0.9986 0.0422
vn -0.1509 -0.8383 0.5239
vn 0.4210 -0.8660 0.2698
vn 0.2431 -0.5262 0.8149
vn 0.8377 -0.5461 -0.0014
vn 0.3980 -0.8502 -0.3446
vn -0.4965 -0.8677 -0.0237
vn -0.7009 -0.4515 0.5522
vn -0.0991 -0.8463 -0.5235
vn -0.6818 -0.4906 -0.5426
vn 0.2650 -0.5121 -0.8170
vn 0.9332 0.0520 0.3556
vn 0.9545 -0.0267 -0.2970
vn -0.0400 -0.0539 0.9977
vn 0.6443 0.0187 0.7646
vn -0.9650 -0.0382 0.2594
vn -0.5907 -0.0980 0.8009
vn -0.5873 -0.0114 -0.8093
vn -0.9581 0.0397 -0.2836
vn 0.5324 -0.0973 -0.8409
vn 0.0036 -0.0862 -0.9963
vn 0.7102 0.5426 0.4486
vn -0.2285 0.5590 0.7971
vn -0.8595 0.5054 -0.0766
vn -0.3282 0.4893 -0.8080
vn 0.7040 0.5477 -0.4520
vn 0.2033 0.8614 0.4655
vn 0.5504 0.8302 0.0883
vn -0.3875 0.8861 0.2542
vn -0.4795 0.8362 -0.2663
vn 0.1488 0.8870 -0.4372
s 1
usemtl Trunk
f 3//3 4//4 6//6 5//5
f 5//5 6//6 8//8 7//7
f 7//7 8//8 10//10 9//9
f 9//9 10//10 12//12 11//11
f 11//11 12//12 14//14 13//13
f 13//13 14//14 16//16 15//15
f 15//15 16//16 18//18 17//17
f 6//6 4//4 20//20 18//18 16//16 14//14 12//12 10//10 8//8
f 17//17 18//18 20//20 19//19
f 19//19 20//20 4//4 3//3
f 3//3 5//5 7//7 9//9 11//11 13//13 15//15 17//17 19//19
usemtl Canopy
f 25//25 51//51 56//56
f 22//22 36//36 37//37
f 26//26 52//52 58//58
f 21//21 44//44 41//41
f 23//23 32//32 50//50
f 1//1 42//42 45//45
f 22//22 37//37 31//31
f 2//2 34//34 40//40
f 21//21 41//41 35//35
f 2//2 38//38 34//34
f 1//1 45//45 39//39
f 2//2 48//48 38//38
f 24//24 47//47 49//49
f 1//1 46//46 42//42
f 2//2 46//46 48//48
f 24//24 49//49 43//43
f 23//23 33//33 32//32
f 27//27 53//53 59//59
f 28//28 54//54 60//60
f 29//29 55//55 57//57
f 57//57 60//60 30//30
f 57//57 55//55 60//60
f 55//55 28//28 60//60
f 60//60 59//59 30//30
f 60//60 54//54 59//59
f 54//54 27//27 59//59
f 59//59 58//58 30//30
f 59//59 53//53 58//58
f 53//53 26//26 58//58
f 32//32 31//31 27//27
f 32//32 33//33 31//31
f 33//33 22//22 31//31
f 43//43 55//55 29//29
f 43//43 49//49 55//55
f 49//49 28//28 55//55
f 48//48 44//44 21//21
f 48//48 46//46 44//44
f 46//46 1//1 44//44
f 42//42 40//40 24//24
f 42//42 46//46 40//40
f 46//46 2//2 40//40
f 49//49 50//50 28//28
f 49//49 47//47 50//50
f 47//47 23//23 50//50
f 38//38 36//36 22//22
f 38//38 48//48 36//36
f 48//48 21//21 36//36
f 39//39 51//51 25//25
f 39//39 45//45 51//51
f 45//45 29//29 51//51
f 34//34 33//33 23//23
f 34//34 38//38 33//33
f 38//38 22//22 33//33
f 35//35 52//52 26//26
f 35//35 41//41 52//52
f 41//41 25//25 52//52
f 40//40 47//47 24//24
f 40//40 34//34 47//47
f 34//34 23//23 47//47
f 31//31 53//53 27//27
f 31//31 37//37 53//53
f 37//37 26//26 53//53
f 45//45 43//43 29//29
f 45//45 42//42 43//43
f 42//42 24//24 43//43
f 50//50 54//54 28//28
f 50//50 32//32 54//54
f 32//32 27//27 54//54
f 41//41 39//39 25//25
f 41//41 44//44 39//39
f 44//44 1//1 39//39
f 58//58 56//56 30//30
f 58//58 52//52 56//56
f 52//52 25//25 56//56
f 37//37 35//35 26//26
f 37//37 36//36 35//35
f 36//36 21//21 35//35
f 56//56 57//57 30//30
f 56//56 51//51 57//57
f 51//51 29//29 57//57
f 103//103 116//116 115//115
f 104//104 116//116 118//118
f 103//103 115//115 120//120
f 103//103 120//120 122//122
f 103//103 122//122 119//119
f 104//104 118//118 125//125
f 105//105 117//117 127//127
f 106//106 121//121 129//129
f 107//107 123//123 131//131
f 108//108 124//124 133//133
f 104//104 125//125 128//128
f 105//105 127//127 130//130
f 106//106 129//129 132//132
f 107//107 131//131 134//134
f 108//108 133//133 126//126
f 109//109 135//135 140//140
f 110//110 136//136 142//142
f 111//111 137//137 143//143
f 112//112 138//138 144//144
f 113//113 139//139 141//141
f 141//141 144//144 114//114
f 141//141 139//139 144//144
f 139//139 112//112 144//144
f 144//144 143//143 114//114
f 144//144 138//138 143//143
f 138//138 111//111 143//143
f 143//143 142//142 114//114
f 143//143 137//137 142//142
f 137//137 110//110 142//142
f 142//142 140//140 114//114
f 142//142 136//136 140//140
f 136//136 109//109 140//140
f 140//140 141//141 114//114
f 140//140 135//135 141//141
f 135//135 113//113 141//141
f 126//126 139//139 113//113
f 126//126 133//133 139//139
f 133//133 112//112 139//139
f 134//134 138//138 112//112
f 134//134 131//131 138//138
f 131//131 111//111 138//138
f 132//132 137//137 111//111
f 132//132 129//129 137//137
f 129//129 110//110 137//137
f 130//130 136//136 110//110
f 130//130 127//127 136//136
f 127//127 109//109 136//136
f 128//128 135//135 109//109
f 128//128 125//125 135//135
f 125//125 113//113 135//135
f 133//133 134//134 112//112
f 133//133 124//124 134//134
f 124//124 107//107 134//134
f 131//131 132//132 111//111
f 131//131 123//123 132//132
f 123//123 106//106 132//132
f 129//129 130//130 110//110
f 129//129 121//121 130//130
f 121//121 105//105 130//130
f 127//127 128//128 109//109
f 127//127 117//117 128//128
f 117//117 104//104 128//128
f 125//125 126//126 113//113
f 125//125 118//118 126//126
f 118//118 108//108 126//126
f 119//119 124//124 108//108
f 119//119 122//122 124//124
f 122//122 107//107 124//124
f 122//122 123//123 107//107
f 122//122 120//120 123//123
f 120//120 106//106 123//123
f 120//120 121//121 106//106
f 120//120 115//115 121//121
f 115//115 105//105 121//121
f 118//118 119//119 108//108
f 118//118 116//116 119//119
f 116//116 103//103 119//119
f 115//115 117//117 105//105
f 115//115 116//116 117//117
f 116//116 104//104 117//117
f 187//187 200//200 199//199
f 188//188 200//200 202//202
f 187//187 199//199 204//204
f 187//187 204//204 206//206
f 187//187 206//206 203//203
f 188//188 202//202 209//209
f 189//189 201//201 211//211
f 190//190 205//205 213//213
f 191//191 207//207 215//215
f 192//192 208//208 217//217
f 188//188 209//209 212//212
f 189//189 211//211 214//214
f 190//190 213//213 216//216
f 191//191 215//215 218//218
f 192//192 217//217 210//210
f 193//193 219//219 224//224
f 194//194 220//220 226//226
f 195//195 221//221 227//227
f 196//196 222//222 228//228
f 197//197 223//223 225//225
f 225//225 228//228 198//198
f 225//225 223//223 228//228
f 223//223 196//196 228//228
f 228//228 227//227 198//198
f 228//228 222//222 227//227
f 222//222 195//195 227//227
f 227//227 226//226 198//198
f 227//227 221//221 226//226
f 221//221 194//194 226//226
f 226//226 224//224 198//198
f 226//226 220//220 224//224
f 220//220 193//193 224//224
f 224//224 225//225 198//198
f 224//224 219//219 225//225
f 219//219 197//197 225//225
f 210//210 223//223 197//197
f 210//210 217//217 223//223
f 217//217 196//196 223//223
f 218//218 222//222 196//196
f 218//218 215//215 222//222
f 215//215 195//195 222//222
f 216//216 221//221 195//195
f 216//216 213//213 221//221
f 213//213 194//194 221//221
f 214//214 220//220 194//194
f 214//214 211//211 220//220
f 211//211 193//193 220//220
f 212//212 219//219 193//193
f 212//212 209//209 219//219
f 209//209 197//197 219//219
f 217//217 218//218 196//196
f 217//217 208//208 218//218
f 208//208 191//191 218//218
f 215//215 216//216 195//195
f 215//215 207//207 216//216
f 207//207 190//190 216//216
f 213//213 214//214 194//194
f 213//213 205//205 214//214
f 205//205 189//189 214//214
f 211//211 212//212 193//193
f 211//211 201//201 212//212
f 201//201 188//188 212//212
f 209//209 210//210 197//197
f 209//209 202//202 210//210
f 202//202 192//192 210//210
f 203//203 208//208 192//192
f 203//203 206//206 208//208
f 206//206 191//191 208//208
f 206//206 207//207 191//191
f 206//206 204//204 207//207
f 204//204 190//190 207//207
f 204//204 205//205 190//190
f 204//204 199//199 205//205
f 199//199 189//189 205//205
f 202//202 203//203 192//192
f 202//202 200//200 203//203
f 200//200 187//187 203//203
f 199//199 201//201 189//189
f 199//199 200//200 201//201
f 200//200 188//188 201//201
usemtl CanopyLight
f 61//61 74//74 73//73
f 62//62 74//74 76//76
f 61//61 73//73 78//78
f 61//61 78//78 80//80
f 61//61 80//80 77//77
f 62//62 76//76 83//83
f 63//63 75//75 85//85
f 64//64 79//79 87//87
f 65//65 81//81 89//89
f 66//66 82//82 91//91
f 62//62 83//83 86//86
f 63//63 85//85 88//88
f 64//64 87//87 90//90
f 65//65 89//89 92//92
f 66//66 91//91 84//84
f 67//67 93//93 98//98
f 68//68 94//94 100//100
f 69//69 95//95 101//101
f 70//70 96//96 102//102
f 71//71 97//97 99//99
f 99//99 102//102 72//72
f 99//99 97//97 102//102
f 97//97 70//70 102//102
f 102//102 101//101 72//72
f 102//102 96//96 101//101
f 96//96 69//69 101//101
f 101//101 100//100 72//72
f 101//101 95//95 100//100
f 95//95 68//68 100//100
f 100//100 98//98 72//72
f 100//100 94//94 98//98
f 94//94 67//67 98//98
f 98//98 99//99 72//72
f 98//98 93//93 99//99
f 93//93 71//71 99//99
f 84//84 97//97 71//71
f 84//84 91//91 97//97
f 91//91 70//70 97//97
f 92//92 96//96 70//70
f 92//92 89//89 96//96
f 89//89 69//69 96//96
f 90//90 95//95 69//69
f 90//90 87//87 95//95
f 87//87 68//68 95//95
f 88//88 94//94 68//68
f 88//88 85//85 94//94
f 85//85 67//67 94//94
f 86//86 93//93 67//67
f 86//86 83//83 93//93
f 83//83 71//71 93//93
f 91//91 92//92 70//70
f 91//91 82//82 92//92
f 82//82 65//65 92//92
f 89//89 90//90 69//69
f 89//89 81//81 90//90
f 81//81 64//64 90//90
f 87//87 88//88 68//68
f 87//87 79//79 88//88
f 79//79 63//63 88//88
f 85//85 86//86 67//67
f 85//85 75//75 86//86
f 75//75 62//62 86//86
f 83//83 84//84 71//71
f 83//83 76//76 84//84
f 76//76 66//66 84//84
f 77//77 82//82 66//66
f 77//77 80//80 82//82
f 80//80 65//65 82//82
f 80//80 81//81 65//65
f 80//80 78//78 81//81
f 78//78 64//64 81//81
f 78//78 79//79 64//64
f 78//78 73//73 79//79
f 73//73 63//63 79//79
f 76//76 77//77 66//66
f 76//76 74//74 77//77
f 74//74 61//61 77//77
f 73//73 75//75 63//63
f 73//73 74//74 75//75
f 74//74 62//62 75//75
f 145//145 158//158 157//157
f 146//146 158//158 160//160
f 145//145 157//157 162//162
f 145//145 162//162 164//164
f 145//145 164//164 161//161
f 146//146 160//160 167//167
f 147//147 159//159 169//169
f 148//148 163//163 171//171
f 149//149 165//165 173//173
f 150//150 166//166 175//175
f 146//146 167//167 170//170
f 147//147 169//169 172//172
f 148//148 171//171 174//174
f 149//149 173//173 176//176
f 150//150 175//175 168//168
f 151//151 177//177 182//182
f 152//152 178//178 184//184
f 153//153 179//179 185//185
f 154//154 180//180 186//186
f 155//155 181//181 183//183
f 183//183 186//186 156//156
f 183//183 181//181 186//186
f 181//181 154//154 186//186
f 186//186 185//185 156//156
f 186//186 180//180 185//185
f 180//180 153//153 185//185
f 185//185 184//184 156//156
f 185//185 179//179 184//184
f 179//179 152//152 184//184
f 184//184 182//182 156//156
f 184//184 178//178 182//182
f 178//178 151//151 182//182
f 182//182 183//183 156//156
f 182//182 177//177 183//183
f 177//177 155//155 183//183
f 168//168 181//181 155//155
f 168//168 175//175 181//181
f 175//175 154//154 181//181
f 176//176 180//180 154//154
f 176//176 173//173 180//180
f 173//173 153//153 180//180
f 174//174 179//179 153//153
f 174//174 171//171 179//179
f 171//171 152//152 179//179
f 172//172 178//178 152//152
f 172//172 169//169 178//178
f 169//169 151//151 178//178
f 170//170 177//177 151//151
f 170//170 167//167 177//177
f 167//167 155//155 177//177
f 175//175 176//176 154//154
f 175//175 166//166 176//176
f 166//166 149//149 176//176
f 173//173 174//174 153//153
f 173//173 165//165 174//174
f 165//165 148//148 174//174
f 171//171 172//172 152//152
f 171//171 163//163 172//172
f 163//163 147//147 172//172
f 169//169 170//170 151//151
f 169//169 159//159 170//170
f 159//159 146//146 170//170
f 167//167 168//168 155//155
f 167//167 160//160 168//168
f 160//160 150//150 168//168
f 161//161 166//166 150//150
f 161//161 164//164 166//166
f 164//164 149//149 166//166
f 164//164 165//165 149//149
f 164//164 162//162 165//165
f 162//162 148//148 165//165
f 162//162 163//163 148//148
f 162//162 157//157 163//163
f 157//157 147//147 163//163
f 160//160 161//161 150//150
f 160//160 158//158 161//161
f 158//158 145//145 161//161
f 157//157 159//159 147//147
f 157//157 158//158 159//159
f 158//158 146//146 159//159
